# xmcd CD database file
#
# Track frame offsets:
#	182
#	9742
#	22030
#	30885
#	44910
#	55460
#	66890
#	78737
#	88227
#	112450
#	154870
#	187655
#	237367
#
# Disc length: 3506 seconds
#
# Revision: 1
# Processed by: cddbd v1.4PL0 Copyright (c) Steve Scherf et al.
# Submitted via: CDex 1.50
#
DISCID=b40db00d
DTITLE=Canned Heat - Big Road Blues
DYEAR=1900
DGENRE=Blues
TTITLE0=Big Road Blues
TTITLE1=I´ve got my Mojo working
TTITLE2=Pretty Thing
TTITLE3=Loise
TTITLE4=Dimples
TTITLE5=Talk to my Baby
TTITLE6=Straight Ahead
TTITLE7=Rollin´and Tumblin´
TTITLE8=I´d rather be a Devil
TTITLE9=It hurts me too
TTITLE10=Bulfrog Blues
TTITLE11=Sweet sixteen
TTITLE12=Dust my Broom
EXTD=
EXTT0=
EXTT1=
EXTT2=
EXTT3=
EXTT4=
EXTT5=
EXTT6=
EXTT7=
EXTT8=
EXTT9=
EXTT10=
EXTT11=
EXTT12=
PLAYORDER=
